<?xml version="1.0" encoding="UTF-8"?>
<svg id="Layer_2" xmlns="http://www.w3.org/2000/svg" version="1.1" viewBox="0 0 224.7 72">
  <!-- Generator: Adobe Illustrator 29.1.0, SVG Export Plug-In . SVG Version: 2.1.0 Build 142)  -->
  <defs>
    <style>
      .st0 {
        fill: none;
      }

      .st1 {
        fill: #ffc333;
      }

      .st2 {
        fill: #ffc233;
      }

      .st3 {
        fill: #fff;
      }
    </style>
  </defs>
  <g id="Logo">
    <g>
      <g>
        <g>
          <path class="st3" d="M139,34l3.5-.9V9.4l-3.5-.8v-1.8h14.6v1.8l-3.8.8v24.7l7.9-.6,5-8.1h1.5l-1.2,10.5h-24v-1.8h0Z"/>
          <path class="st3" d="M165.3,34l3.5-.9V9.4l-3.5-.8v-1.8h24.2l.8,8.9h-1.4l-4.4-6.6-8.4-.5v11.4l4.1-.3,1.8-4.4h1.7v11h-1.7l-1.8-4-4.1-.3v12l9.4-.4,4.8-8h1.5l-1,10.3h-25.4v-1.8h0Z"/>
          <path class="st3" d="M194,21.4c0-8,6.6-15,14.8-15s14.8,7,14.8,15-6.5,14.7-14.8,14.7-14.8-6.8-14.8-14.7ZM215.8,21.4c0-9.6-2.1-12.8-7-12.8s-7,3.2-7,12.8,2.2,12.6,7,12.6,7-3.4,7-12.6Z"/>
        </g>
        <g>
          <path class="st3" d="M161.6,64.5l.9-.3,4.1-10.1h1.5l3.7,10.1.8.3v.7h-4.7v-.7l1.3-.3-1-2.7h-3.4l-1,2.7,1.3.3v.7h-3.6v-.7h0ZM165.1,60.6h2.7l-1.4-3.7-1.3,3.7Z"/>
          <path class="st3" d="M186.4,64.5l.9-.3,4.1-10.1h1.5l3.9,10.1.8.3v.7h-5v-.7l1.3-.3-1-2.7h-3.4l-1,2.7,1.3.3v.7h-3.6v-.7h0ZM189.9,60.6h2.7l-1.4-3.7-1.3,3.7Z"/>
          <path class="st3" d="M174.4,64.3l-.4.8h-.7l-.2-3.9h.6c1.1,2.1,1.9,3,3.5,3s2-.5,2-1.5-.5-1.4-2.4-2c-2.5-.8-3.7-1.9-3.7-3.9s1.8-3,3.9-3,2.1.6,2.6,1l.3-.8h.6l.2,3.3h-.6c-.7-2-1.9-2.7-3.2-2.7s-1.9.8-1.9,1.6.7,1.3,2.7,1.8c2.3.7,3.5,1.7,3.5,3.7s-1.4,3.5-3.8,3.5-2.4-.4-3.1-1h0Z"/>
          <path class="st3" d="M106.1,64.3l-.4.8h-.7l-.2-3.9h.6c1.1,2.1,1.9,3,3.5,3s2-.5,2-1.5-.5-1.4-2.4-2c-2.5-.8-3.7-1.9-3.7-3.9s1.8-3,3.9-3,2.1.6,2.7,1l.3-.8h.6l.2,3.3h-.6c-.7-2-1.9-2.7-3.2-2.7s-1.9.8-1.9,1.6.7,1.3,2.7,1.8c2.3.7,3.5,1.7,3.5,3.7s-1.4,3.5-3.8,3.5-2.4-.4-3.1-1h0Z"/>
          <path class="st3" d="M93.1,64.5l.9-.3,4.1-10.1h1.5l3.7,10.1,1,.3v.7h-5v-.7l1.3-.3-1-2.7h-3.3l-1,2.7,1.3.3v.7h-3.6v-.7h0ZM96.7,60.6h2.7l-1.4-3.7-1.3,3.7Z"/>
          <path class="st3" d="M115.7,64.5l1.5-.3v-9.1l-1.7.2-1.6,2.8h-.6l.2-3.9h10l.2,3.9h-.6l-1.6-2.8-1.7-.2v9.1l1.5.3v.7h-5.8v-.7h0Z"/>
          <path class="st3" d="M132.2,64.5l1.5-.3v-9.1l-1.6.2-1.6,2.8h-.6l.2-3.9h10l.2,3.9h-.6l-1.6-2.8-1.7-.2v9.1l1.5.3v.7h-5.8v-.7h0Z"/>
          <path class="st3" d="M141,64.5l1.5-.3v-8.8l-1.5-.3v-.9h9.2l.3,3.5h-.5l-1.6-2.5-3.1-.2v4.2h1.5c0,0,.6-1.7.6-1.7h.6v4.1h-.6l-.6-1.5h-1.5c0,0,0,4.4,0,4.4l3.3-.2,1.8-3h.6l-.4,3.8h-9.4v-.7h0Z"/>
          <path class="st3" d="M82.9,64.5l1.5-.3v-8.8l-1.5-.3v-.9h9.2l.3,3.5h-.5l-1.6-2.5-3.1-.2v4.2h1.5c0,0,.7-1.7.7-1.7h.6v4.1h-.6l-.7-1.5h-1.5c0,0,0,4.4,0,4.4l3.3-.2,1.8-3h.6l-.4,3.8h-9.4v-.7h0Z"/>
          <path class="st3" d="M151.4,64.5l1.1-.3,3-4.2-3-4.5-1.1-.3v-.9h5.5v.9l-1.2.3,2,3.3,1.8-3.3-1.1-.3v-.9h3.7v.9l-1.1.3-2.7,4,3.2,4.8.9.3v.7h-5.3v-.7l1.1-.3-2.1-3.5-2.1,3.5,1.1.3v.7h-3.6v-.7h0Z"/>
          <path class="st3" d="M197.7,62c0-1.7,1.3-2.6,3.3-3.2-.4-.6-.7-1.4-.7-2,0-1.5,1.3-2.7,3.1-2.7s2.6.8,2.6,2.1-1.1,1.9-2.3,2.4l2.4,3.1c.3-.6.6-1.4.8-2.3l-.9-.3v-.6h3.5v.6l-1.5.3c-.4,1.2-.9,2.1-1.5,3l.8,1c.3.4.7.6,1.9.6v.6c-.4.3-1.2.7-2.2.7s-1.5-.2-2.2-1.1c-.9.7-1.9,1.1-3.1,1.1-2.7,0-4-1.4-4-3.1h0ZM204.4,63.5l-3.1-4.1c-.6.4-.9,1-.9,2.1,0,2,.7,2.7,2.1,2.7s1.3-.2,1.9-.7h0ZM204.4,56.3c0-1.1-.5-1.4-1-1.4s-1,.4-1,1.3.4,1.4.8,1.9c.6-.4,1.1-1.1,1.1-1.8h0Z"/>
          <path class="st3" d="M210,64.5l1.5-.3v-8.8l-1.5-.3v-.9h4.5l2.5,7,2.3-7h4.4v.9l-1.3.3v8.8l1.3.3v.7h-5.1v-.7l1.1-.3v-8.1l-3,8.8h-1l-3.3-8.8.4,8.1,1.2.3v.7h-3.9v-.7h0Z"/>
        </g>
        <path class="st1" d="M148.3,46.1h76.4v-1.8h-74.9c-.4.5-.9,1.2-1.5,1.8h0Z"/>
        <path class="st1" d="M119.3,44.3h-36.4v1.8h37.3c.5-.4.9-.8,1.1-1.1,0,0,.1-.2.3-.7h-2.3,0Z"/>
      </g>
      <g id="Lion_Head">
        <g>
          <path class="st2" d="M36,0C16.1,0,0,16.1,0,36s16.1,36,36,36,36-16.2,36-36S55.8,0,36,0M36,70.2C17.1,70.2,1.8,54.9,1.8,36S17.1,1.8,36,1.8s34.2,15.3,34.2,34.2-15.3,34.2-34.2,34.2"/>
          <path class="st0" d="M52.4,28.9h0c-.1-.2-.2-.4-.3-.6-.4-.8-.7-1.2-1-1.5,0,0-1.2-.2-2.3,0-1.5.2-2.2.8-2.2.8.3,0,.6,0,.9,0,0,0,0,.3,0,.5.6.9,1.9,1.3,3.3.9.7.8,2.5,2.5,4.5,2.9-1.1-.5-2.2-1.8-3-3.1"/>
          <path class="st0" d="M38.1,16.7c-3.3,0-4.5,2.7-4.6,5.1,0,2.5-.5,5-1.8,5.7,0,0,5-.2,6.7-3.6,0-.1.1-.2.2-.4-.2,0-.4,0-.6,0-1,0-2,.2-2.9.5,1.4-1.5,3.2-2.5,5.2-2.9-.8-.2-2-.3-2.8-.2,1.7-.8,3.6-1,5.5-.6.2,0,.5.1.7.2-.3-.5-2.7-3.8-5.7-3.8"/>
          <path class="st0" d="M36,1.8C17.1,1.8,1.8,17.1,1.8,36s15.3,34.2,34.2,34.2,34.2-15.3,34.2-34.2S54.9,1.8,36,1.8M58.8,37.7c.6.5,2.4.8,2.5,1.7,0,0,.6-.4,1.3-.5-.3.5-.8,1.2-1.2,1.8-.2.3-.5.5-.7.6.1-.4.2-.8.3-1.2,0,0-1.3,1-2.3,1.3,0,0-4.9,1.3-6.8,1.1-.8-.1-1.6-.6-1.6-.6,0,0,.3,3.2,3.5,2.5,2-.4,5.7-1.9,5.8-1.9-.1.6-.4,1.5-1.1,2.4,0,0,1.2,2.2.2,4.7-1.1,2.5-3.4,3.7-3.4,3.7,0,0,.7-1.7-.9-3.5-1.5-1.5-3.6-2.6-5.7-3.5h0c-8-3.2-7.9-8.2-7.9-8.2-.7,1.5-.9,2.7-.8,3.8-2.7-3.2-2.2-7.9-2.2-7.9-.4.7-5.2,10,5,14,1.7.7,3.1,1.4,4.3,2.1h0c2,1,6.2,5,1.5,11.1.2-.6.2-1.2.2-1.8,0-4-3.7-7.5-9.1-9.1,3.6,1.7,5.9,4.4,5.9,7.5s-1.6,4.9-4.3,6.5c.6-1.3,1-2.9.9-4.6,0,0-1.3,3.2-8,4.8.8-2.4.8-6-3.7-9.7-6.8-5.5-7.2-12.2-7.2-12.2-1.4,6.2-.3,11.6,1,15.3-2.9-2-4.9-5.1-5.5-8.7-.2.9-.3,1.8-.3,2.8,0,3.1,1,5.9,2.8,8.2-5.7-4.6-9.3-11.6-9.3-19.4s3.1-13.8,8.1-18.4c-5.3,3.1-9.3,8.1-11.2,14-.9-16.8,13.3-22.9,15.6-23.9-1.6,0-3.1.1-4.6.4,4.4-2.9,9.7-4.5,15.3-4.4,3.3,0,6.7.8,9.6,2-.7-.8-1.4-1.5-2.3-2.1,6.7.7,11.8,5.7,11.8,11.7v.3c-1.7-1.2-5.6-2-5.6-2,2.4,1.2,4.5,3,5.4,3.8h0c1.5,1.4,3.2,3.4,3.3,5.6,0,.9.6,1.6.6,1.6l5.2,6.6c-1.3,0-3.3.4-4.9-.3,0,0-.1,1.1.5,1.6"/>
          <path class="st2" d="M63.2,36.4l-5.2-6.6s-.6-.7-.6-1.6c-.2-2.2-1.9-4.2-3.3-5.5h0c-.9-.8-3-2.6-5.4-3.8,0,0,3.9.8,5.6,2v-.3c0-6-5.1-11-11.8-11.7.9.6,1.6,1.3,2.3,2.1-2.9-1.2-6.2-1.9-9.6-2-5.6-.1-10.9,1.5-15.3,4.4,1.5-.3,3.1-.4,4.6-.4-2.4.9-16.5,7.1-15.6,23.8,1.9-5.9,5.9-10.9,11.2-14-5,4.6-8.1,11.1-8.1,18.4s3.6,14.8,9.3,19.4c-1.7-2.3-2.8-5.1-2.8-8.2s.1-1.9.3-2.8c.6,3.6,2.7,6.7,5.5,8.7-1.3-3.7-2.4-9.1-1-15.3,0,0,.4,6.7,7.2,12.2,4.6,3.7,4.6,7.3,3.7,9.7,6.7-1.6,8-4.8,8-4.8,0,1.8-.3,3.3-.9,4.6,2.7-1.7,4.3-4,4.3-6.5s-2.3-5.7-5.9-7.5c5.4,1.6,9.1,5,9.1,9.1s0,1.2-.2,1.8c4.7-6.1.6-10.1-1.5-11.1h0c-1.2-.7-2.6-1.4-4.3-2.1-10.2-4-5.5-13.3-5-14,0,0-.5,4.7,2.2,7.9-.1-1.1,0-2.4.8-3.8,0,0-.2,5,7.9,8.2h0c2.1.9,4.2,2,5.7,3.5,1.6,1.8.9,3.5.9,3.5,0,0,2.4-1.2,3.4-3.7,1.1-2.5-.2-4.7-.2-4.7.7-.9.9-1.8,1.1-2.4-.2,0-3.9,1.5-5.8,1.9-3.2.7-3.4-2.5-3.5-2.5,0,0,.8.5,1.6.6,1.9.2,6.8-1.1,6.8-1.1,1-.3,2.3-1.3,2.3-1.3,0,.4-.1.8-.3,1.2.2,0,.5-.3.7-.6.5-.6.9-1.3,1.2-1.8-.6,0-1.3.5-1.3.5,0-.9-1.9-1.2-2.5-1.7s-.5-1.6-.5-1.6c1.5.7,3.6.2,4.9.3M43.1,20.4c-1.9-.4-3.8-.1-5.5.6.8-.1,2,0,2.8.2-2,.3-3.8,1.4-5.2,2.9.9-.3,1.9-.5,2.9-.5s.4,0,.6,0c0,.1-.1.2-.2.4-1.7,3.4-6.7,3.6-6.7,3.6,1.3-.7,1.7-3.2,1.8-5.7,0-2.5,1.2-5.1,4.6-5.1s5.4,3.4,5.7,3.8c-.2,0-.5-.1-.7-.2M51,29.2c-1.4.3-2.8,0-3.3-.9-.1-.2,0-.4,0-.5-.3,0-.7,0-.9,0,0,0,.7-.5,2.2-.8,1.1-.2,2.3,0,2.3,0,.2.2.5.7,1,1.5,0,.2.2.4.3.6h0c.8,1.3,1.9,2.6,3,3.1-2-.4-3.8-2.1-4.5-2.9"/>
        </g>
      </g>
      <path class="st3" d="M148.1,41.7c-.5,0-2.4,1.4-4.5,1.4s-8.3-1.2-14.2-2.1c.8-2.8,1.7-5.9,2.4-8.6,1.6-5.8,2.9-11.6,3.2-13.4,0-.3.2-.8.2-1.1,0-.8-2.9-2.3-3.7-2.3s-.8.2-1,.8c-.5,1.8-1.7,7.9-3.1,11.1-.6,1.4-3.2,5.3-5,5.3s-1.2-.7-1.2-1.2c0-1.9,2.9-11.5,3.1-12.6,0-.3.2-.8.2-1.1,0-.8-2.9-2.3-3.7-2.3s-.8.2-1,.8c-.6,1.5-1.8,5.7-2.7,9.4,0,0,0,0,0,0-2.2,4-4.5,7.3-5.8,7.3s-1.2-.7-1.2-1.2c0-2.3,2.7-10.9,2.7-13s-2.4-3.4-3.7-3.4c-2.3,0-6.5,2.9-6.5,2.9,0,0-2.1-2.9-4.1-2.9s-6.1,2.6-6.1,2.6c0,0-2.1-2.6-2.9-2.6s-1.2.3-1.4.9c-.9,3-4.3,16.3-4.3,17.4s2.5,2.3,3.6,2.3.8-.4,1-1c.3-1.3,2.3-10.2,3.5-13.1.7-1.7,3.2-2.8,4.1-2.8s1.2.4,1.2,1.2-2.9,12.2-2.9,13.3,2.6,2.3,3.6,2.3.8-.4,1-1c.2-1.2,2.2-10.2,3.1-12.9.5-1.5,2.9-2.9,4-2.9s1.3.7,1.3,1.5c0,1.7-2.5,9.4-2.5,11.5s4,3.8,5.9,3.8,3.6-1.5,5.2-3.7c.6,1.7,3.6,3.7,5.6,3.7s3.6-1.9,5.3-3.9c0,0-1.1,4.2-2.3,7.9-2.6-.4-4.9-.7-5.9-.7-1.5,0-4.1,1.5-5.8,3.1h5.6c.5-.2,1.1-.3,1.7-.3s1.8.3,3.4.7c-.4,1.3-.8,2.3-1.1,2.7-.7,1-2.9,2.8-3.7,2.8s-1-.4-1.6-.9h-4.9c1.8,2.1,5.6,4.5,7.3,4.5s6.3-2.5,7.1-3.9c.3-.7.9-2,1.4-3.7,5.4,1.7,11.8,3.8,14.5,3.8s6.3-5.2,6.3-5.5-.6-1-1-1h0Z"/>
    </g>
  </g>
</svg>